<?xml version="1.0" encoding="UTF-8" standalone="no"?>
<svg
   width="466mm"
   height="134.99999999999997mm"
   viewBox="-233 -296.99999999999994 466 134.99999999999997"
   version="1.1"
   id="svg8"
   sodipodi:docname="shelf_x1.svg"
   inkscape:version="1.1.2 (0a00cf5339, 2022-02-04)"
   xmlns:inkscape="http://www.inkscape.org/namespaces/inkscape"
   xmlns:sodipodi="http://sodipodi.sourceforge.net/DTD/sodipodi-0.dtd"
   xmlns="http://www.w3.org/2000/svg"
   xmlns:svg="http://www.w3.org/2000/svg">
  <defs
     id="defs12" />
  <sodipodi:namedview
     id="namedview10"
     pagecolor="#ffffff"
     bordercolor="#666666"
     borderopacity="1.0"
     inkscape:pageshadow="2"
     inkscape:pageopacity="0.0"
     inkscape:pagecheckerboard="0"
     inkscape:document-units="mm"
     showgrid="false"
     inkscape:zoom="2.0258362"
     inkscape:cx="880.8708"
     inkscape:cy="254.95644"
     inkscape:window-width="3766"
     inkscape:window-height="2096"
     inkscape:window-x="0"
     inkscape:window-y="0"
     inkscape:window-maximized="1"
     inkscape:current-layer="svg8" />
  <title
     id="title2">svgOutput</title>
  <desc
     id="desc4">made with tinkercad</desc>
  <path
     d="m 220.09938,-296 1.07462,0.053 1.166,0.173 1.03801,0.25971 0.10499,0.0263 1.11,0.39701 0.37824,0.17901 0.68676,0.32498 1.01101,0.60602 0.946,0.702 0.873,0.79098 0.791,0.87302 0.097,0.13071 0.60499,0.81527 0.60601,1.01102 0.50399,1.065 0.39701,1.10999 0.28599,1.143 0.17301,1.16599 0.053,1.07464 v 0.10138 91.20699 17.78799 0.10147 l -0.053,1.07554 -0.17301,1.166 -0.28599,1.143 -0.39701,1.11 -0.50399,1.065 -0.60601,1.01 -0.60499,0.81615 -0.097,0.13086 -0.791,0.873 -0.873,0.791 -0.946,0.70199 -1.01101,0.60601 -1.065,0.50399 -0.19291,0.069 -0.91709,0.32801 -1.143,0.28599 -1.166,0.17301 -1.07462,0.053 h -0.10138 -0.375 -439.61999 -0.10147 l -1.07554,-0.053 -1.166,-0.17301 -1.037,-0.25947 -0.106,-0.0265 -0.91709,-0.32801 -0.19291,-0.069 -1.065,-0.50399 -1.01,-0.60601 -0.94701,-0.70199 -0.873,-0.791 -0.791,-0.873 -0.097,-0.13086 -0.60499,-0.81615 -0.60601,-1.01 -0.50399,-1.065 -0.39701,-1.11 -0.28599,-1.143 -0.17301,-1.166 -0.053,-1.07554 v -0.10147 -108.99498 -0.10138 l 0.053,-1.07464 0.17301,-1.16599 0.28599,-1.143 0.39701,-1.10999 0.50399,-1.065 0.60601,-1.01102 0.60499,-0.81527 0.097,-0.13071 0.791,-0.87302 0.873,-0.79098 0.94701,-0.702 1.01,-0.60602 0.68676,-0.32498 0.37824,-0.17901 1.11,-0.39701 0.106,-0.0265 1.037,-0.25946 1.166,-0.173 1.07554,-0.053 h 0.10147 0.375 439.24499 0.375 0.10138 m 1.21661,103.2 0.18401,0.009 0.18401,-0.009 0.18199,-0.027 0.179,-0.044 0.17399,-0.062 0.166,-0.079 0.15801,-0.095 0.14799,-0.11001 0.13701,-0.123 0.123,-0.13701 0.11,-0.14799 0.095,-0.158 0.076,-0.16066 0.003,-0.006 0.062,-0.173 0.044,-0.179 0.028,-0.18199 0.004,-0.076 0.005,-0.108 -0.009,-0.18401 -0.028,-0.18199 -0.044,-0.179 -0.062,-0.173 -0.003,-0.006 -0.076,-0.16064 -0.095,-0.15801 -0.11,-0.14799 -0.123,-0.13701 -0.13701,-0.123 -0.14799,-0.11 -0.15801,-0.095 -0.166,-0.079 -0.17399,-0.062 -0.179,-0.044 -0.18199,-0.027 -0.18401,-0.01 -0.18401,0.01 -0.13198,0.0196 -0.05,0.007 -0.179,0.044 -0.173,0.062 -0.16699,0.079 -0.15801,0.095 -0.14799,0.11 -0.13701,0.123 -0.123,0.13701 -0.11,0.14799 -0.0764,0.127 -0.0187,0.031 -0.079,0.16699 -0.062,0.173 -0.044,0.179 -0.027,0.18199 -0.009,0.18401 0.005,0.108 0.004,0.076 0.027,0.18199 0.044,0.179 0.062,0.173 0.079,0.167 0.095,0.158 0.0661,0.089 0.0439,0.059 0.123,0.13701 0.13701,0.123 0.14799,0.11001 0.15801,0.095 0.16699,0.079 0.173,0.062 0.179,0.044 0.05,0.007 0.13198,0.0196 m 0.36802,-92.99999 0.18199,-0.027 0.179,-0.044 0.17399,-0.062 0.166,-0.079 0.15801,-0.095 0.14799,-0.11002 0.13701,-0.12299 0.123,-0.13699 0.11,-0.14801 0.0571,-0.095 0.0379,-0.063 0.079,-0.16702 0.062,-0.17298 0.044,-0.17901 0.028,-0.18201 0.009,-0.18399 -0.009,-0.18399 -0.028,-0.18201 -0.044,-0.17901 -0.062,-0.17298 -0.079,-0.16702 -0.095,-0.15799 -0.0424,-0.057 -0.0676,-0.091 -0.123,-0.13699 -0.13701,-0.12299 -0.14799,-0.11001 -0.15801,-0.095 -0.166,-0.079 -0.17399,-0.062 -0.179,-0.044 -0.18199,-0.027 -0.18401,-0.01 -0.18401,0.01 -0.13198,0.0196 -0.05,0.007 -0.179,0.044 -0.173,0.062 -0.16699,0.079 -0.15801,0.095 -0.14799,0.11001 -0.13701,0.12299 -0.123,0.13699 -0.0676,0.091 -0.0424,0.057 -0.095,0.15799 -0.079,0.16702 -0.062,0.17298 -0.044,0.17901 -0.027,0.18201 -0.009,0.18399 0.009,0.18399 0.027,0.18201 0.044,0.17901 0.062,0.17298 0.079,0.16702 0.0379,0.063 0.0571,0.095 0.11,0.14801 0.123,0.13699 0.13701,0.12299 0.14799,0.11002 0.15801,0.095 0.16699,0.079 0.173,0.062 0.179,0.044 0.05,0.007 0.13198,0.0196 0.18401,0.009 0.18401,-0.009 m -443,92.99999 0.13198,-0.0196 0.05,-0.007 0.179,-0.044 0.17399,-0.062 0.166,-0.079 0.15801,-0.095 0.14799,-0.11001 0.13701,-0.123 0.123,-0.13701 0.0439,-0.059 0.0661,-0.089 0.095,-0.158 0.079,-0.167 0.062,-0.173 0.044,-0.179 0.028,-0.18199 0.004,-0.076 0.005,-0.108 -0.009,-0.18401 -0.028,-0.18199 -0.044,-0.179 -0.062,-0.173 -0.079,-0.16699 -0.0187,-0.031 -0.0764,-0.127 -0.11,-0.14799 -0.123,-0.13701 -0.13701,-0.123 -0.14799,-0.11 -0.15801,-0.095 -0.166,-0.079 -0.17399,-0.062 -0.179,-0.044 -0.05,-0.007 -0.13198,-0.0196 -0.18401,-0.01 -0.18401,0.01 -0.18199,0.027 -0.179,0.044 -0.173,0.062 -0.16699,0.079 -0.15801,0.095 -0.14799,0.11 -0.13701,0.123 -0.123,0.13701 -0.11,0.14799 -0.095,0.15801 -0.076,0.16064 -0.003,0.006 -0.062,0.173 -0.044,0.179 -0.027,0.18199 -0.009,0.18401 0.005,0.108 0.004,0.076 0.027,0.18199 0.044,0.179 0.062,0.173 0.003,0.006 0.076,0.16066 0.095,0.158 0.11,0.14799 0.123,0.13701 0.13701,0.123 0.14799,0.11001 0.15801,0.095 0.16699,0.079 0.173,0.062 0.179,0.044 0.18199,0.027 0.18401,0.009 0.18401,-0.009 m 0,-92.99999 0.13198,-0.0196 0.05,-0.007 0.179,-0.044 0.17399,-0.062 0.166,-0.079 0.15801,-0.095 0.14799,-0.11002 0.13701,-0.12299 0.123,-0.13699 0.11,-0.14801 0.0571,-0.095 0.0379,-0.063 0.079,-0.16702 0.062,-0.17298 0.044,-0.17901 0.028,-0.18201 0.009,-0.18399 -0.009,-0.18399 -0.028,-0.18201 -0.044,-0.17901 -0.062,-0.17298 -0.079,-0.16702 -0.095,-0.15799 -0.0424,-0.057 -0.0676,-0.091 -0.123,-0.13699 -0.13701,-0.12299 -0.14799,-0.11001 -0.15801,-0.095 -0.166,-0.079 -0.17399,-0.062 -0.179,-0.044 -0.05,-0.007 -0.13198,-0.0196 -0.18401,-0.01 -0.18401,0.01 -0.18199,0.027 -0.179,0.044 -0.173,0.062 -0.16699,0.079 -0.15801,0.095 -0.14799,0.11001 -0.13701,0.12299 -0.123,0.13699 -0.0676,0.091 -0.0424,0.057 -0.095,0.15799 -0.079,0.16702 -0.062,0.17298 -0.044,0.17901 -0.027,0.18201 -0.009,0.18399 0.009,0.18399 0.027,0.18201 0.044,0.17901 0.062,0.17298 0.079,0.16702 0.0379,0.063 0.0571,0.095 0.11,0.14801 0.123,0.13699 0.13701,0.12299 0.14799,0.11002 0.15801,0.095 0.16699,0.079 0.173,0.062 0.179,0.044 0.18199,0.027 0.18401,0.009 0.18401,-0.009"
     fill="none"
     stroke="#ff0000"
     stroke-width="0.01mm"
     id="path6"
     sodipodi:nodetypes="cccccccccccccccccccccccccccccccccccccccccccccccccccccccccccccccccccccccccccccccccccccccccccccccccccccccccccccccccccccccccccccccccccccccccccccccccccccccccccccccccccccccccccccccccccccccccccccccccccccccccccccccccccccccccccccccccccccccccccccccccccccccccccccccccccccccccccccccccccccccccccccccccccccccccccccccccccccccccccccccccccccccccccccccccccccccccccccccccccccccccccccccccccccccccccc" />
</svg>
